<?xml version="1.0" encoding="utf-8"?>
<!-- Generator: Adobe Illustrator 27.0.0, SVG Export Plug-In . SVG Version: 6.00 Build 0)  -->
<svg version="1.1" id="Layer_1" xmlns="http://www.w3.org/2000/svg" xmlns:xlink="http://www.w3.org/1999/xlink" x="0px" y="0px"
	 viewBox="0 0 512 512" style="enable-background:new 0 0 512 512;" xml:space="preserve">
<style type="text/css">
	.st0{fill:#3F4195;}
	.st1{fill:#01AFEF;}
</style>
<g>
	<path class="st0" d="M51.9,31.4c6.7,10.5,13.4,20.9,19.9,31.4c1.9,3.1,4.3,5.3,7.6,6.9c46.6,23,93.1,46,139.6,69
		c2.1,1.1,3.2,2.1,3.2,4.8c-0.1,88.6-0.1,177.2-0.1,265.8c0,0.7,0,1.3,0,2c-1.4,0.3-1.8-0.7-2.4-1.3c-7.7-7.3-15.3-14.7-23-21.9
		c-1.9-1.8-2.6-3.6-2.6-6.2c0.2-70.1,0.2-140.3,0.4-210.4c0-3-0.8-4.6-3.4-6.2C152.5,141.7,114,117.8,75.4,94
		c-2.1-1.3-3.4-2.7-4.2-5c-6.4-18.5-12.8-37-19.3-55.5c-0.2-0.6-0.4-1.3-0.5-1.9C51.5,31.5,51.7,31.5,51.9,31.4z"/>
	<path class="st1" d="M256.5,57.9c4.5,12.6,8.7,24.6,12.9,36.6c0.5,1.4,0.4,2.9,0.4,4.4c0,132.1,0,264.2,0.1,396.2
		c0,2.1-0.5,3.7-1.9,5.2c-3.4,3.5-6.7,7.1-10,10.7c-1.2,1.4-2.1,1.2-3.2,0c-3.7-3.8-7.4-7.6-11.2-11.4c-1-1-1.5-1.9-1.4-3.3
		c0.1-1.1,0-2.3,0-3.4c0-131.5,0-263,0-394.5c0-4.8,2.6-8.9,4.1-13.2c2.8-8.2,5.8-16.2,8.8-24.3C255.4,60,255.8,59.2,256.5,57.9z"/>
	<path class="st0" d="M290,412.4c0-5.5,0-10.1,0-14.6c0-84.5,0-169.1-0.1-253.6c0-2.8,0.8-4.2,3.3-5.5
		c47.3-23.3,94.5-46.8,141.8-70.2c1.6-0.8,2.8-1.8,3.7-3.3c6.4-10.2,12.9-20.4,19.4-30.6c0.6-0.9,1.3-1.9,2.5-2.6
		c-1.4,4.2-2.8,8.4-4.3,12.6c-5.2,14.8-10.4,29.7-15.5,44.5c-0.7,2-1.8,3.5-3.6,4.7c-38.9,24-77.8,48-116.7,71.9
		c-2.2,1.4-3.1,2.7-3.1,5.4c0.2,70,0.3,140.1,0.5,210.1c0,3.1-0.8,5.3-3.1,7.4C306.7,396.2,298.7,404,290,412.4z"/>
	<path class="st1" d="M280.6,0.1c3.5,2.1,6.9,4.2,10,6.9c7.3,6.2,10.9,14.2,11.1,23.6c0.1,4.7-0.1,9.3-1.7,13.8
		c-0.6,1.5-0.3,2.7,0.9,4c3.4,3.7,4.5,8.2,4.3,12.8c-2.1-1.9-4.2-3.9-6.4-5.7c-6.1-5.2-12.3-4.3-16.7,2.4c-4.6,7-5.1,14.7-3.7,22.6
		c2.2,12.6,7.9,23.6,16.1,33.5c-1.3-0.9-2.6-1.7-3.9-2.7c-1.3-1-2.5-1.9-3.7-3c-18.5-16.7-24.6-37.3-19.2-61.4
		c0.6-2.8,1.5-5.5,1.9-8.3c0.4-2.2,1-2.5,3.1-1.6c4.1,1.8,8.5,2.6,13,1.2c3.1-1,4.9-3.1,6-6c2.6-7.3,0.9-14.1-2.6-20.6
		C286.7,7.3,283.2,4,280.6,0.1L280.6,0.1z"/>
	<path class="st1" d="M220.6,110.5c5.2-6.8,9-13.7,11.4-21.3c3.1-10,4.7-20-0.6-29.8c-4.6-8.5-12-9.6-18.9-2.8
		c-1.7,1.7-3.2,3.5-5.5,6c0.6-5.6,0.8-10.3,4.4-13.9c1.2-1.2,1.4-2.2,1-3.9c-2.6-10-3-19.8,2.3-29.2c3.2-5.6,7.5-10.1,13.5-12.8
		c0.7,1.1,0.2,1.6-0.4,2.3c-5.6,7-9.2,14.5-7.9,23.8c0.9,6.3,4.8,9.9,11.2,10c2.9,0,5.7-0.4,8.3-1.8c2-1.1,2.7-0.6,3.3,1.5
		c7.6,26.3,5,51.2-18.5,70.8C223.4,110.1,222.6,110.6,220.6,110.5z"/>
	<path class="st1" d="M246.3,33.6c0-5.8,4.3-10.3,9.9-10.4c5.4-0.1,9.9,4.7,9.8,10.4c-0.1,5.6-4.4,10.1-9.7,10.2
		C250.9,44,246.3,39.3,246.3,33.6z"/>
	<polygon class="st1" points="280.6,0.1 280.5,0 280.6,0.1 	"/>
</g>
</svg>
