<?xml version="1.0" encoding="utf-8"?>
<!-- Generator: Adobe Illustrator 25.2.0, SVG Export Plug-In . SVG Version: 6.00 Build 0)  -->
<svg version="1.1" id="Layer_1" xmlns="http://www.w3.org/2000/svg" xmlns:xlink="http://www.w3.org/1999/xlink" x="0px" y="0px"
	 viewBox="0 0 570 142" style="enable-background:new 0 0 570 142;" xml:space="preserve">
<style type="text/css">
	.st0{fill-rule:evenodd;clip-rule:evenodd;fill:#121517;}
	.st1{fill-rule:evenodd;clip-rule:evenodd;fill:#F5A00E;}
	.st2{fill-rule:evenodd;clip-rule:evenodd;fill:#FFFFFF;}
	.st3{fill-rule:evenodd;clip-rule:evenodd;fill:#EC1E26;}
</style>
<g>
	<g>
		<path class="st0" d="M69,2.7c26.4,9.2,49.2,26.8,68.2,49.6c-0.6,30-12.4,59.9-26.1,80.2c-27.7,8-56.3,8.6-84.3,0
			C12.1,109.2,1.2,80.4,0.8,52.3C20.9,28.7,39.4,14.2,69,2.7L69,2.7z"/>
		<path class="st1" d="M69,5.1c25.6,8.9,47.5,25.9,66,47.9c-0.6,29-12,57.9-25.2,77.5c-26.8,7.7-54.4,8.3-81.5,0
			C13.9,108.1,3.5,80.2,3.1,53.1C22.5,30.3,40.3,16.2,69,5.1L69,5.1z"/>
		<path class="st0" d="M69,6.8C94,15.5,115.4,32,133.3,53.5c-0.6,28.2-11.7,56.5-24.6,75.6c-26.1,7.6-53.1,8.1-79.5,0
			C15.3,107.2,5.1,80,4.7,53.5C23.7,31.3,41,17.6,69,6.8L69,6.8z"/>
		<path class="st1" d="M69,8.5C93.3,17,114.2,33,131.6,54c-0.6,27.5-11.4,55-23.9,73.6c-25.4,7.4-51.7,7.9-77.4,0
			C16.7,106.2,6.8,79.7,6.4,54C24.9,32.3,41.8,19,69,8.5L69,8.5z"/>
		<path class="st1" d="M69,10.3c23.6,8.2,43.9,23.9,60.8,44.2c-0.6,26.7-11,53.4-23.2,71.5c-24.7,7.1-50.2,7.7-75.2,0
			C18.2,105.2,8.6,79.5,8.2,54.4C26.1,33.4,42.6,20.5,69,10.3L69,10.3z"/>
		<path class="st2" d="M49.1,29.4c0.8,1.4,1.8,2.1,1.3,4.3c-0.5,2.4-3.8,4.1-5.6,7.6c-1,2-2.1,4.1-2.1,8c0,0-0.2-0.4-2.3-0.5
			C40,51,40.8,54,42.7,55.7c-0.6,0.7-1,1.6-2.1,2.8c0.4,1.5,1.9,2.3,3.1,3.6c-0.5,0.9-2.3,1.8-2.8,3.5c2.2-0.4,6.4,2.1,7,5.7
			c0.3,2.1,0.7,4.6,0.7,7.2c0,2,0.3,6.4-1.4,7.3c2,1.8,1.8,3.9,2.3,6c0.5,2.1,1.4,3.7,2.5,4.3c1.8,1,4.6,0.4,5.3-2
			c0.2-0.5-0.2-1.6-0.6-2.1c-0.9-0.9-2.2-0.8-2.7,0.9c-1,0.7-1.7,0-1.7-2c0-2,0.5-4.6,1.2-5.4c-2.1-1.3-0.9-7.4-0.5-10.3
			c0.5-2.9,1.3-5.5,2.3-7.6c1.8-3.3,3.7-4.7,6.2-6.9c-2.3-1.3-4-4.8-4.4-7.3c-1,1.9-2.8,5.3-4.6,3.7c-1.5-1.3,0.4-5.5,5.3-7.6
			c-2.8-1.1-3.5-4-3-7.6c0.3-2,1.1-3.9,0.6-7C55,31.8,52.9,29.1,49.1,29.4L49.1,29.4z M45.5,62.3c0.7,0,1.3,0.6,1.3,1.3
			c0,0.7-0.6,1.3-1.3,1.3c-0.7,0-1.3-0.6-1.3-1.3C44.2,62.9,44.8,62.3,45.5,62.3L45.5,62.3z M44.7,57.1c0.7,0,1.3,0.6,1.3,1.3
			c0,0.7-0.6,1.3-1.3,1.3c-0.7,0-1.3-0.6-1.3-1.3C43.4,57.7,44,57.1,44.7,57.1L44.7,57.1z M44.7,51.3c0.7,0,1.3,0.6,1.3,1.3
			c0,0.7-0.6,1.3-1.3,1.3c-0.7,0-1.3-0.6-1.3-1.3C43.4,51.9,44,51.3,44.7,51.3L44.7,51.3z"/>
		<path class="st0" d="M78,51.3c-2.3,1.1-5.5,2-8.8,2c-3.3,0-7-1.4-9.2-2.3c-0.3-0.1-1,0.4-0.7,1c1,2,5.8,3.4,9.7,3.4
			c4,0,7.5-0.5,9.8-3.1C79.2,51.9,78.4,51.1,78,51.3L78,51.3z M66.1,59.5c0.8,0.4,2,0.5,2.9,0.5c0.9,0,2.2-0.1,3.1-0.4
			c-0.4,4.2-0.3,10-2.9,10C66.5,69.5,66.5,64.2,66.1,59.5L66.1,59.5z M77.8,54.5c-2,1.1-5.5,2-8.7,2c-3.3,0-6.8-0.9-9-2
			c-0.3-0.1-1,0.4-0.7,1c1.2,2,5.8,3.3,9.7,3.3c3.9,0,7.9-1,9.5-3.3C78.9,55.1,78.1,54.3,77.8,54.5L77.8,54.5z"/>
		<path class="st0" d="M42.7,67.6c-1.6-0.6-3.2-0.3-4.5,0.4c-1.7,1.1-3.4,2.9-3,5.8c0.4,2.4,1.6,3.6,2.5,4.3
			c-2.3,1.6-4.9-0.5-4.9-3.4c0-3.5,4.8-14.8,4.8-19.9C37.9,52,37,43.2,34.8,41c-5.1,6.5-6.8,11.9-7.1,16.6
			c-0.2,4.6-1.2,24.2,6.9,23.6c1.6-0.1,2.6-0.6,3.4-1.2c-0.2,0-0.5-0.3-0.5-0.5c0-0.4,0.3-0.5,0.5-0.5c0.4,0,0.5,0.1,0.5,0.4
			c0,0,0,0,0,0c0.1,0.4,0.1,0.9,0.2,1.5c-1.9,2.3-6.1,2.5-8.2,0.9c-2.3-1.8-3.2-4.6-4.2-8.2c-1-4.6-1-11.4-0.3-16.7
			C20.9,59.2,19.4,67,22,75c1.4,4.1,5.6,12.3,13.7,10.3c1-0.2,2-1,2.9-1.8c-0.2-0.1-0.4-0.3-0.4-0.5c0-0.4,0.2-0.5,0.5-0.5
			c0.2,0,0.3,0,0.4,0.2c0.1,0.5,0.1,1.1,0.2,1.8c-1.6,2-4.4,2.9-6.9,2.7c-5.2-0.2-8.5-4.6-10.6-8.7C19.5,86.6,26.5,91,31.2,91
			c3.8,0,6.5-1.6,7.9-3.5c-0.2,0-0.5-0.2-0.5-0.5c0-0.3,0.3-0.5,0.5-0.5c0.3,0,0.4,0.1,0.5,0.2c0,0,0,0,0-0.1
			c0.1,0.7,0.3,1.2,0.4,1.8c-1.1,1.6-3.2,3-5.5,3.6c-4.5,1.1-8.3,0.1-11.5-2.9c-0.5,6.6,8.6,7.4,11.8,6.8c2.7-0.4,4.2-1.8,5.3-3.7
			c-0.3,0-0.5-0.3-0.5-0.5c0-0.4,0.2-0.5,0.5-0.5c0.2,0,0.3,0,0.4,0.1c0,0,0,0,0-0.1c0.2,0.6,0.4,1.3,0.6,1.9
			c-1.4,2.7-4.3,4-5.6,4.2c-5.1,1-6.7,0-10.1-1.4c1.3,7.1,10.4,5.8,12.6,4.7c1.8-0.9,3.2-2.3,3.9-4.2c0,0,0,0-0.1,0
			c-0.4,0-0.5-0.2-0.5-0.5c0-0.3,0.2-0.5,0.5-0.5c0.1,0,0.3,0,0.4,0.1l0,0c0.9,2,2.2,3.7,3.9,4.7c4.9,3.1,10.7,1.3,14.6,1.5
			c-0.6,2.6,1.9,2.6,2.8,2.1c1.3-0.8,1.3-2.6,0.5-3.6c-1.3-1.7-5.4-0.5-10.6-1.4c-4.3-0.5-8.4-4.7-8.4-11.1c0-2.6-0.9-8.7-0.1-12.2
			c-1.5,1.1-3.2,1.1-4.2,0.7c-1.2-0.5-2.6-1.7-2.6-3.8c0-1.2,0.4-1.8,1.3-2.5c-0.2,0.5-0.3,0.9-0.3,1.4c0,2.2,1,3.4,3.2,3.4
			c2.1-0.1,3.7-1.3,3.7-3.4C45.8,69.1,43.9,68.1,42.7,67.6L42.7,67.6z"/>
		<path class="st2" d="M55.8,106.8c0,0,2.9-0.2,3.6,1.5c0.7,1.9,2,3.3,2.8,4.2c-1.9-0.3-3.9-2.3-4.2-3.2
			C57.6,107.9,55.7,106.4,55.8,106.8L55.8,106.8z M49.5,107.1c0,0,3.6-0.7,5.9,0.9c2.3,1.5,2.5,3.9,5.3,5c-1.7,0.3-3.1,0.1-5-0.2
			c-1.9-0.3-3.2-2-3.7-3C51.4,108.7,49.5,107.1,49.5,107.1L49.5,107.1z M37,107.1c0,0,4.8-0.5,6.3,0.7c1.4,1.2,2.6,4.1,5.5,5.2
			c-1.8,0.3-4.1,0.1-5.6-0.5c-1.5-0.6-2.7-2.3-3.1-3C39.6,108.8,37,107.1,37,107.1L37,107.1z M44.3,107.1c0,0,4,0,5.3,1.8
			c1.3,1.7,2.6,3,4,4.1c-1.8,0.3-1.1,0.2-3-0.1c-1.9-0.3-3.8-2.5-4-3.2C46.2,108.5,44.2,106.7,44.3,107.1L44.3,107.1z M55.9,114.4
			c-1.6,1-3.2,1.4-5.3,1.4c-2,0-2.4-0.4-3.7-1.4H55.9L55.9,114.4z M57.8,114.4c-1.6,1.4-4.2,2.7-6.8,2.7c-2.9,0-3.9-1.2-5.4-2.2
			c-0.2-0.2-1-0.7-2-0.5c1.5,1.1,1.5,2.4,2.7,3.4c1.6,1.4,3,1.4,4.7,1.4c4.7-0.1,6.8-4,8.1-4.6L57.8,114.4L57.8,114.4z M68.9,98.9
			c-1.6,5-7.8,6.4-7.9,9.4c-0.1,3.5,3.6,4.8,7.9,4.8s8-1,8-4.8C77,104.9,71,104.5,68.9,98.9L68.9,98.9z M76.6,114.4H61.4
			c1.3,2.3,4.6,3.9,7.6,2.6C72.8,118.5,75.7,116.2,76.6,114.4L76.6,114.4z M69,122c-3.9,0.8-9.8-2.2-9.6-7.5
			c1.3,0.3,2.3,2.2,3.5,2.8c1.2,0.7,2.7,1.6,6.2,0.9c3.8,0.8,5-0.2,6.2-0.8c1.2-0.6,2.1-2.8,3.4-2.9C78.8,119.8,73.2,122.9,69,122
			L69,122z M82.2,106.8c0,0-2.9-0.2-3.6,1.5c-0.7,1.9-2,3.3-2.8,4.2c1.9-0.3,3.9-2.3,4.2-3.2C80.5,107.9,82.3,106.4,82.2,106.8
			L82.2,106.8z M88.6,107.1c0,0-3.6-0.7-5.9,0.9c-2.3,1.5-2.5,3.9-5.3,5c1.7,0.3,3.1,0.1,5-0.2c1.9-0.3,3.2-2,3.7-3
			C86.7,108.7,88.6,107.1,88.6,107.1L88.6,107.1z M101.1,107.1c0,0-4.8-0.5-6.3,0.7c-1.4,1.2-2.6,4.1-5.5,5.2
			c1.8,0.3,4.1,0.1,5.6-0.5c1.5-0.6,2.7-2.3,3.1-3C98.5,108.8,101.1,107.1,101.1,107.1L101.1,107.1z M93.8,107.1c0,0-4,0-5.3,1.8
			c-1.3,1.7-2.6,3-4,4.1c1.8,0.3,1.1,0.2,3-0.1c1.9-0.3,3.8-2.5,4-3.2C91.9,108.5,93.9,106.7,93.8,107.1L93.8,107.1z M82,114.4
			c1.6,1,3,1.5,5.1,1.5c2,0,2.7-0.5,4.1-1.5H82L82,114.4z M80.3,114.4c1.6,1.4,4.2,2.7,6.8,2.7c2.5,0,4.8-1.8,5.8-2.3
			c0.3-0.1,0.9-0.3,1.6-0.2c-1.5,1.2-2.1,2.4-2.9,3.1c-1.2,1.1-2.7,1.5-4.5,1.5c-4.7,0-6.8-4-8.1-4.6L80.3,114.4L80.3,114.4z"/>
		<path class="st3" d="M67.3,26.4c0.5,7.3-7.4,11-8.5,15.7c-1,4.2,0,9.8,10.2,10c8.1,0.2,10.7-2.5,10.5-7.7
			c-0.3-4.9-6.4-6.8-5.5-11.6c-2.1,0.8-3.4,2.9-3,5c0.8,3.5,2.7,7.1-1.9,7.2c-1.6,0-2.7-1.6-2.2-3.6c0.6-2.6,3.2-6.2,3.2-9.4
			C70.1,29.8,69.4,27.7,67.3,26.4L67.3,26.4z"/>
		<path class="st3" d="M65.7,80.1c0.9-0.7-1.1-3.8-1.7-5.4c-0.8,0.4-1.2,0.5-1.8,1c-0.8,0.6-0.9,0.9-1.4,1.7
			C62.4,78.8,64.9,80.8,65.7,80.1L65.7,80.1z M68.9,78.9c1.1,0,1.6-3.6,2.2-5.2c-0.9-0.2-1.2-0.4-2.1-0.4c-0.9,0-1.3,0.1-2.2,0.4
			C67.3,75.7,67.9,78.9,68.9,78.9L68.9,78.9z M72.2,80c0.9,0.6,3.6-1.7,5-2.6c-0.5-0.7-0.7-1-1.4-1.6c-0.7-0.6-1-0.7-1.9-1.1
			C73,76.5,71.3,79.3,72.2,80L72.2,80z M74,83c0.2,1,3.8,0.9,5.5,1.2c0-0.9,0.1-1.3,0-2.2c-0.1-0.9-0.3-1.2-0.8-2.1
			C76.8,80.8,73.7,81.9,74,83L74,83z M73.4,86.4c-0.5,0.9,2.3,3.2,3.4,4.5c0.6-0.6,0.9-0.9,1.4-1.7c0.5-0.8,0.5-1.1,0.8-2.1
			C77,86.5,73.9,85.4,73.4,86.4L73.4,86.4z M70.8,88.6c-1,0.4-0.3,4-0.2,5.6c0.9-0.1,1.3,0,2.1-0.4c0.9-0.3,1.2-0.5,1.9-1.1
			C73.4,91,71.8,88.2,70.8,88.6L70.8,88.6z M67.3,88.6c-1-0.4-2.7,2.8-3.8,4.1c0.7,0.5,1,0.8,1.8,1c0.9,0.4,1.2,0.4,2.2,0.4
			C67.8,92.2,68.4,89,67.3,88.6L67.3,88.6z M64.7,86.5c-0.5-0.9-3.9,0.4-5.5,0.7c0.2,0.9,0.2,1.3,0.7,2c0.5,0.9,0.7,1.1,1.4,1.7
			C62.8,89.5,65.3,87.4,64.7,86.5L64.7,86.5z M64,83.1c0.2-1.1-3.3-2.2-4.7-3c-0.4,0.8-0.6,1.1-0.7,2c-0.2,1-0.1,1.3,0,2.2
			C60.7,84.2,63.9,84.2,64,83.1L64,83.1z M68.9,80.8c-1.7,0-3.1,1.4-3.1,3.1c0,1.7,1.4,3.2,3.1,3.2c1.7,0,3.2-1.4,3.2-3.2
			C72.1,82.2,70.7,80.8,68.9,80.8L68.9,80.8z M69,70.6c-7.3,0-13.3,6-13.3,13.3c0,7.3,5.9,13.3,13.3,13.3c7.3,0,13.3-5.9,13.3-13.3
			C82.3,76.6,76.3,70.6,69,70.6L69,70.6z"/>
		<path class="st0" d="M95.4,67.6c1.6-0.6,3.2-0.3,4.5,0.4c1.7,1.1,3.4,2.9,3,5.8c-0.4,2.4-1.6,3.6-2.5,4.3c2.3,1.6,4.9-0.5,4.9-3.4
			c0-3.5-4.8-14.8-4.8-19.9c-0.4-2.7,0.5-11.5,2.7-13.7c5.1,6.5,6.9,11.9,7.1,16.6c0.2,4.6,1.2,24.2-6.9,23.6
			c-1.6-0.1-2.6-0.6-3.4-1.2c0.2,0,0.5-0.3,0.5-0.5c0-0.4-0.3-0.5-0.5-0.5c-0.4,0-0.5,0.1-0.5,0.4c0,0,0,0,0,0
			c-0.1,0.4-0.1,0.9-0.2,1.5c1.9,2.3,6.1,2.5,8.2,0.9c2.3-1.8,3.2-4.6,4.2-8.2c1-4.6,1-11.4,0.3-16.7c5.5,2.4,6.9,10.2,4.3,18.2
			c-1.4,4.1-5.6,12.3-13.7,10.3c-1-0.2-2-1-2.9-1.8c0.2-0.1,0.4-0.3,0.4-0.5c0-0.4-0.2-0.5-0.5-0.5c-0.2,0-0.3,0-0.4,0.2
			c-0.1,0.5-0.1,1.1-0.2,1.8c1.6,2,4.4,2.9,6.9,2.7c5.2-0.2,8.5-4.6,10.6-8.7c2.4,8.3-4.6,12.7-9.3,12.7c-3.8,0-6.5-1.6-7.9-3.5
			c0.2,0,0.5-0.2,0.5-0.5c0-0.3-0.3-0.5-0.5-0.5c-0.3,0-0.4,0.1-0.5,0.2c0,0,0,0,0-0.1c-0.1,0.7-0.3,1.2-0.4,1.8
			c1.1,1.6,3.2,3,5.5,3.6c4.5,1.1,8.3,0.1,11.5-2.9c0.5,6.6-8.6,7.4-11.8,6.8c-2.7-0.4-4.2-1.8-5.3-3.7c0.3,0,0.5-0.3,0.5-0.5
			c0-0.4-0.2-0.5-0.5-0.5c-0.2,0-0.3,0-0.4,0.1c0,0,0,0,0-0.1c-0.2,0.6-0.4,1.3-0.6,1.9c1.4,2.7,4.3,4,5.6,4.2c5.1,1,6.7,0,10.1-1.4
			c-1.3,7.1-10.4,5.8-12.6,4.7c-1.8-0.9-3.2-2.3-3.9-4.2c0,0,0,0,0.1,0c0.4,0,0.5-0.2,0.5-0.5c0-0.3-0.2-0.5-0.5-0.5
			c-0.1,0-0.3,0-0.4,0.1l0,0c-0.9,2-2.2,3.7-3.9,4.7c-4.9,3.1-10.7,1.3-14.6,1.5c0.6,2.6-1.9,2.6-2.8,2.1c-1.3-0.8-1.3-2.6-0.5-3.6
			c1.3-1.7,5.4-0.5,10.6-1.4c4.3-0.5,8.4-4.7,8.4-11.1c0-2.6,0.9-8.7,0.1-12.2c1.5,1.1,3.2,1.1,4.2,0.7c1.2-0.5,2.6-1.7,2.6-3.8
			c0-1.2-0.5-1.8-1.3-2.5c0.2,0.5,0.3,0.9,0.3,1.4c0,2.2-1,3.4-3.2,3.4c-2.1-0.1-3.7-1.3-3.7-3.4C92.3,69.1,94.1,68.1,95.4,67.6
			L95.4,67.6z"/>
		<path class="st2" d="M88.9,29.4c-0.8,1.4-1.8,2.1-1.3,4.3c0.5,2.4,3.8,4.1,5.6,7.6c1,2,2.1,4.1,2.1,8c0,0,0.2-0.4,2.3-0.5
			c0.4,2.2-0.4,5.2-2.3,6.9c0.6,0.7,1,1.6,2.1,2.8c-0.4,1.5-1.9,2.3-3.1,3.6c0.5,0.9,2.3,1.8,2.8,3.5c-2.2-0.4-6.4,2.1-7,5.7
			c-0.3,2.1-0.7,4.6-0.7,7.2c0,2-0.3,6.4,1.4,7.3c-2,1.8-1.8,3.9-2.3,6C88,94,87.2,95.6,86,96.2c-1.8,1-4.6,0.4-5.3-2
			c-0.2-0.5,0.2-1.6,0.6-2.1c0.9-0.9,2.2-0.8,2.7,0.9c1,0.7,1.7,0,1.7-2c0-2-0.5-4.6-1.2-5.4c2.1-1.3,0.9-7.4,0.5-10.3
			c-0.5-2.9-1.3-5.5-2.3-7.6c-1.8-3.3-3.7-4.7-6.2-6.9c2.3-1.3,4-4.8,4.4-7.3c1,1.9,2.8,5.3,4.6,3.7c1.5-1.3-0.4-5.5-5.3-7.6
			c2.8-1.1,3.5-4,3-7.6c-0.3-2-1.1-3.9-0.6-7C83,31.8,85.1,29.1,88.9,29.4L88.9,29.4z M92.5,62.3c-0.7,0-1.3,0.6-1.3,1.3
			c0,0.7,0.6,1.3,1.3,1.3c0.7,0,1.3-0.6,1.3-1.3C93.8,62.9,93.2,62.3,92.5,62.3L92.5,62.3z M93.3,57.1c-0.7,0-1.3,0.6-1.3,1.3
			c0,0.7,0.6,1.3,1.3,1.3c0.7,0,1.3-0.6,1.3-1.3C94.6,57.7,94,57.1,93.3,57.1L93.3,57.1z M93.2,51.3c-0.7,0-1.3,0.6-1.3,1.3
			c0,0.7,0.6,1.3,1.3,1.3c0.7,0,1.3-0.6,1.3-1.3C94.5,51.9,94,51.3,93.2,51.3L93.2,51.3z"/>
	</g>
	<g>
		<path d="M197,16.2v1.5c-2.2,0-3.6,0.7-4.1,2.1c-0.4,0.9-0.6,3.4-0.6,7.4v17c0,4.2-1.3,7.6-3.8,10c-2.8,2.7-6.6,4-11.6,4
			c-5,0-8.8-1.2-11.5-3.6c-2.8-2.5-4.2-6.2-4.2-11.2V22c0-1.8-0.5-3.1-1.5-3.7c-0.6-0.4-1.9-0.6-3.8-0.6v-1.5c3.7,0,6.4,0,8.1,0
			c1.7,0,4.4,0,8.4,0v1.5c-1.9,0-3.2,0.2-3.8,0.6c-1,0.6-1.5,1.8-1.5,3.7v20.1c0,9.2,3.8,13.8,11.5,13.8c7.2,0,10.7-3.9,10.7-11.6
			V27.4c0-3.4-0.1-5.7-0.3-6.8c-0.2-1.3-0.7-2.1-1.5-2.5c-0.5-0.2-1.8-0.3-3.8-0.4v-1.5c3.3,0,5.8,0,7.4,0c0.7,0,1.7,0,3,0
			C195.4,16.2,196.3,16.2,197,16.2z"/>
		<path d="M242.4,23.8v34.1H241l-30.9-33.8v22c0,4.2,0.4,6.8,1.2,8c0.8,1.2,2.7,1.8,5.8,1.8v1.5c-0.9,0-2.2,0-3.9,0
			c-1.8,0-3.1,0-3.9,0c-1.8,0-4.4,0-7.8,0v-1.5c2.2,0,3.7-0.3,4.5-0.9c1.2-1,1.8-3.2,1.8-6.5V24.7c0-2.5-0.6-4.3-1.7-5.3
			c-1.1-1-3-1.6-5.5-1.6v-1.5c2.4,0,4.2,0,5.4,0c0.6,0,1.4,0,2.4,0c1.1,0,1.9,0,2.4,0c1,1.5,2.9,3.7,5.7,6.8c3,3.2,5.9,6.4,8.9,9.6
			c3.5,3.8,8.4,9,14.6,15.8V24.9c0-2.8-0.5-4.6-1.4-5.6c-0.9-1-2.8-1.5-5.8-1.5v-1.5c3.6,0,6.4,0,8.2,0c0.8,0,1.9,0,3.5,0
			c1.5,0,2.6,0,3.4,0v1.5c-2.1,0-3.5,0.3-4.1,0.9C242.9,19.4,242.4,21.2,242.4,23.8z"/>
		<path d="M257.7,51.6V22c0-1.8-0.5-3.1-1.5-3.7c-0.6-0.4-1.9-0.6-3.8-0.6v-1.5c3.7,0,6.4,0,8.1,0c1.7,0,4.4,0,8.4,0v1.5
			c-1.9,0-3.2,0.2-3.8,0.6c-1,0.6-1.5,1.8-1.5,3.7v29.6c0,1.8,0.5,3.1,1.5,3.7c0.6,0.4,1.9,0.6,3.8,0.6v1.5c-0.9,0-2.3,0-4,0
			c-1.8,0-3.1,0-3.9,0c-1.8,0-4.6,0-8.6,0v-1.5c1.9,0,3.2-0.2,3.8-0.6C257.2,54.7,257.7,53.5,257.7,51.6z"/>
		<path d="M293.2,58.3l-9.8-24.4c-1.1-2.6-2.6-6.4-4.5-11.4c-0.7-1.8-1.4-3.1-2.2-3.7c-0.8-0.6-2.1-0.9-4-0.9v-1.5
			c3.7,0,6.5,0,8.3,0c0.8,0,2.1,0,3.7,0c1.7,0,2.9,0,3.7,0v1.5c-0.6,0-1.4,0.1-2.4,0.2c-1.1,0.1-1.6,0.6-1.6,1.4
			c0,0.8,0.6,2.7,1.7,5.5c0.7,1.8,1.4,3.5,2.1,5.3l7.8,20.2l4.5-11.7c1-2.5,2.5-6.3,4.3-11.4c1.2-3.8,1.8-6.1,1.8-6.7
			c0-1.2-0.5-2-1.4-2.4c-0.4-0.2-1.5-0.3-3.1-0.4v-1.5c3.1,0,5.4,0,7,0c1.2,0,3,0,5.5,0v1.5c-1.8,0-3.1,0.8-4,2.3
			c-0.1,0.2-1.6,3.9-4.5,11.2l-10.8,27.1H293.2z"/>
		<path d="M330.2,18.1v16.8h7.8c2,0,3.4-0.7,4.2-2c0.3-0.6,0.6-1.6,0.8-3.1h1.2c-0.2,1.7-0.2,3.9-0.2,6.6c0,0.6,0,1.6,0.1,3.2
			c0.1,1.6,0.1,2.7,0.1,3.4h-1.2c0-2.6-0.5-4.3-1.5-5c-0.7-0.5-2.3-0.7-4.9-0.7h-6.3v10c0,3.5,0.3,5.7,0.8,6.5
			c0.7,1.1,2.5,1.7,5.3,1.7h3.7c3,0,5.3-0.4,6.7-1.3c1.6-1,2.9-3,4-6.1l1.4,0.2c-1.1,3.6-1.9,6.6-2.4,9c-2,0-4.9,0-8.8,0
			c-3.9,0-6.9,0-8.8,0c-5.8,0-10.2,0-13.1,0v-1.5c2.5,0,4.1-0.4,4.7-1.2c0.6-0.8,0.9-2.6,0.9-5.5V23c0-2.3-0.3-3.8-1-4.3
			c-0.6-0.6-2.2-0.9-4.6-0.9v-1.5c2.6,0,6.6,0,11.9,0c7.5,0,13.2,0,17,0V25l-1.2,0.3c-0.4-2.7-1.4-4.6-2.8-5.6
			c-1.4-1-3.6-1.6-6.7-1.6H330.2z"/>
		<path d="M373.5,37.9h-5.4v13.7c0,1.8,0.5,3.1,1.5,3.7c0.6,0.4,1.9,0.6,3.8,0.6v1.5c-0.9,0-2.3,0-4,0c-1.8,0-3.1,0-3.9,0
			c-1.8,0-4.6,0-8.6,0v-1.5c3.6,0.2,5.4-1.1,5.4-4V22c0-1.8-0.5-3.1-1.5-3.7c-0.6-0.4-1.9-0.6-3.8-0.6v-1.5c4.3,0,7.3,0,9,0
			c0.6,0,1.7,0,3.3,0c1.7,0,3.2,0,4.6,0c5,0,8.7,1.2,11,3.7c1.8,1.8,2.7,4.1,2.7,6.8c0,2.4-0.8,4.5-2.5,6.4c-1.5,1.7-3.5,3-5.9,3.7
			c2.2,3.2,4.3,6.4,6.4,9.6c1.8,2.8,3.3,4.7,4.3,5.8c2.2,2.5,4.4,3.7,6.7,3.7v1.5c-0.5,0-1.2,0-2.2,0s-1.7,0-2.2,0c-1.1,0-2.8,0-5,0
			c-2.3-2.5-4.7-5.7-7.2-9.4C377.8,44.6,375.7,41.3,373.5,37.9z M381.4,27c0-5.9-3.2-8.9-9.7-8.9c-0.9,0-2.1,0.1-3.5,0.4v17.3
			c1,0.2,2,0.3,3.1,0.3c3.3,0,5.9-1,7.8-3C380.6,31.5,381.4,29.4,381.4,27z"/>
		<path d="M403.3,56.3l-1.2-8.6h1.4c0.5,2.4,1.6,4.4,3.1,6c1.7,1.8,3.8,2.7,6.1,2.7c2.3,0,4.2-0.7,5.8-2.2c1.5-1.5,2.3-3.3,2.3-5.7
			c0-3-1.5-5.4-4.5-7.4c-2.8-1.7-5.6-3.3-8.4-4.9c-3-2.3-4.5-5.4-4.5-9.4c0-3.7,1.2-6.6,3.6-8.6c2.3-2,5.3-2.9,9-2.9
			c0.9,0,3.3,0.3,7.2,0.9l0.9,7.6h-1.4c-0.7-4.4-3.2-6.5-7.6-6.5c-2.2,0-3.9,0.7-5.2,2.1s-1.9,3.2-1.9,5.4c0,3,1.6,5.5,4.7,7.4
			c2.9,1.7,5.8,3.3,8.8,4.9c3.2,2.3,4.7,5.4,4.7,9.2c0,3.7-1.4,6.6-4.3,8.8c-2.7,2.1-5.9,3.1-9.6,3.1
			C409.2,58.3,406.2,57.6,403.3,56.3z"/>
		<path d="M437.8,51.6V22c0-1.8-0.5-3.1-1.5-3.7c-0.6-0.4-1.9-0.6-3.8-0.6v-1.5c3.7,0,6.4,0,8.1,0c1.7,0,4.4,0,8.4,0v1.5
			c-1.9,0-3.2,0.2-3.8,0.6c-1,0.6-1.5,1.8-1.5,3.7v29.6c0,1.8,0.5,3.1,1.5,3.7c0.6,0.4,1.9,0.6,3.8,0.6v1.5c-0.9,0-2.3,0-4,0
			c-1.8,0-3.1,0-3.9,0c-1.8,0-4.6,0-8.6,0v-1.5c1.9,0,3.2-0.2,3.8-0.6C437.3,54.7,437.8,53.5,437.8,51.6z"/>
		<path d="M490.8,14.6l-0.5,9.4h-1.6c-0.1-2-0.3-3.3-0.6-3.8c-0.6-1-1.9-1.5-4.1-1.5h-9v33c0,1.8,0.5,3.1,1.5,3.7
			c0.6,0.4,1.9,0.6,3.8,0.6v1.5c-0.9,0-2.3,0-4,0s-3.1,0-3.9,0c-1.8,0-4.6,0-8.6,0v-1.5c1.9,0,3.2-0.2,3.8-0.6
			c1-0.6,1.5-1.8,1.5-3.7v-33h-7.7c-2.4,0-4.1,0.4-4.9,1.2c-0.5,0.5-1.1,1.9-1.7,4.1h-1.5l0.6-9.4h1.2c0.4,1.1,1.7,1.7,3.7,1.7h26.8
			c2.3,0,3.6-0.6,3.8-1.7H490.8z"/>
		<path d="M516,14.6l11.3,31.1c0.5,1.6,1.1,3.1,1.7,4.7c0.7,2.1,1.3,3.4,1.7,4c0.8,1.1,2.3,1.6,4.5,1.6v1.5c-0.7,0-1.9,0-3.4,0
			c-1.5,0-2.6,0-3.4,0c-1.9,0-4.8,0-8.6,0v-1.5h1.1c2.2,0,3.2-0.6,3.2-1.9c0-0.6-0.3-1.7-0.9-3.4l-3-8.6h-13.9l-1.3,4.1
			c-1.1,3.4-1.6,5.7-1.6,7c0,1.2,0.4,2,1.2,2.4c0.5,0.2,1.4,0.4,2.8,0.4h1.4v1.5c-0.7,0-1.9,0-3.5,0c-1.6,0-2.7,0-3.5,0
			c-1.6,0-4,0-7.1,0v-1.5c1.8-0.2,3-0.5,3.7-1c0.6-0.5,1.3-1.5,2.1-3.2c0.2-0.4,1-2.6,2.4-6.6l7.6-21.1c0.8-2.3,1.2-4.1,1.2-5.3
			c0-0.7,0-1.2-0.1-1.5c1.7-0.8,2.9-1.7,3.4-2.6H516z M512.9,22.2l-5.7,17.3h12.2L513,22.2H512.9z"/>
		<path d="M542,56.3l-1.2-8.6h1.4c0.5,2.4,1.6,4.4,3.1,6c1.7,1.8,3.8,2.7,6.1,2.7c2.3,0,4.2-0.7,5.8-2.2c1.5-1.5,2.3-3.3,2.3-5.7
			c0-3-1.5-5.4-4.5-7.4c-2.8-1.7-5.6-3.3-8.4-4.9c-3-2.3-4.5-5.4-4.5-9.4c0-3.7,1.2-6.6,3.6-8.6c2.3-2,5.3-2.9,9-2.9
			c0.9,0,3.3,0.3,7.2,0.9l0.9,7.6h-1.4c-0.7-4.4-3.2-6.5-7.6-6.5c-2.2,0-3.9,0.7-5.2,2.1s-1.9,3.2-1.9,5.4c0,3,1.6,5.5,4.7,7.4
			c2.9,1.7,5.8,3.3,8.8,4.9c3.2,2.3,4.7,5.4,4.7,9.2c0,3.7-1.4,6.6-4.3,8.8c-2.7,2.1-5.9,3.1-9.6,3.1
			C547.9,58.3,544.9,57.6,542,56.3z"/>
		<path d="M168.7,85.4v32.4c0,2.2,0.6,3.6,1.7,4.2c0.7,0.4,2.1,0.6,4,0.6h0.9v1.8c-1,0-2.5,0-4.5-0.1c-2-0.1-3.5-0.1-4.5-0.1
			c-1.1,0-2.7,0-4.8,0.1c-2.2,0.1-3.8,0.1-5,0.1v-1.8h0.9c1.2,0,2-0.2,2.5-0.6c0.8-0.7,1.2-2,1.2-4.1V89.7c0-1.9-0.3-3.2-0.9-3.8
			c-0.6-0.6-1.6-0.8-3.1-0.8h-0.7v-1.8c0.6,0,1.9,0,3.8,0.1c1.9,0.1,3.4,0.1,4.5,0.1s2.5,0,4.5-0.1c1.9-0.1,3.3-0.1,4.2-0.1
			c9.2,0,13.9,3.8,13.9,11.3c0,3.4-1.1,6.1-3.2,8.3s-4.9,3.4-8.2,3.7c-0.9,0.1-2.4,0.1-4.7,0.1v-1.8h1.2c2.3,0,4.1-0.9,5.3-2.8
			c1.1-1.8,1.7-4.2,1.7-7.3c0-6.3-3-9.4-8.9-9.4H168.7z"/>
		<path d="M198.5,109.8l-1.9,6.1c-0.9,2.8-1.3,4.3-1.3,4.6c0,1.4,1.5,2.1,4.4,2.1h0.6v1.8c-3.1-0.2-5.5-0.2-7.1-0.2
			c-1.4,0-3.5,0.1-6.4,0.2v-1.8h0.4c2.5,0,4.2-1.3,5.1-3.8l9.4-27.1c0.6-1.7,1.4-4.2,2.2-7.3c2-0.7,3.8-1.5,5.4-2.5
			c0.2-0.1,0.4-0.1,0.5-0.1c0.2,0,0.3,0.1,0.4,0.2c0.1,0.4,0.3,0.8,0.5,1.5l10.9,30.9c0.5,1.4,1.2,3.4,2.2,6c0.7,1.6,2,2.4,3.9,2.4
			h0.4v1.8c-3.5-0.2-6.3-0.2-8.1-0.2s-4.8,0.1-8.9,0.2v-1.8h0.6c2.4,0,3.7-0.6,3.7-1.7c0-0.5-0.4-1.9-1.2-4.2l-2.3-6.8H198.5z
			 M210.6,106.5l-5.4-16.7h-0.1l-5.5,16.7H210.6z"/>
		<path d="M228.2,124.4v-1.8h0.8c2.9,0,4.4-1.1,4.4-3.4V88.4c0-2.2-1.5-3.4-4.4-3.4h-0.8v-1.8c0.4,0,1.8,0,4,0.1
			c2.2,0.1,4,0.1,5.5,0.1c1.4,0,3.1,0,5.2-0.1c2.1-0.1,3.5-0.1,4.3-0.1c7.2,0,12.9,1.9,17.1,5.6s6.3,8.7,6.3,14.9
			c0,5.9-2.2,11-6.5,15.1c-4.3,4.1-9.4,6-15.4,5.6c-2.8-0.2-6.4-0.2-10.7-0.2c-1.5,0-3.5,0-5.8,0.1
			C229.8,124.4,228.5,124.4,228.2,124.4z M240.9,85.7v32c0,2,0.6,3.4,1.7,4c0.8,0.4,2.3,0.6,4.4,0.6c4.8,0,8.6-1.8,11.4-5.3
			c2.6-3.3,3.8-7.3,3.8-12.2c0-13-5.8-19.5-17.3-19.5C244.4,85.4,243.1,85.5,240.9,85.7z"/>
		<path d="M279.9,130.2V88.1c0-1.4-0.5-2.3-1.5-2.7c-0.6-0.3-1.7-0.4-3.4-0.4h-0.8v-1.8c0.8,0,2.3,0,4.4,0.1
			c2.1,0.1,3.7,0.1,4.7,0.1c1.1,0,2.7,0,4.8-0.1c2.1-0.1,3.6-0.1,4.4-0.1V85h-0.9c-2.7,0-4.1,1-4.1,3.1v34.7c0,3.7-1.1,6.9-3.4,9.8
			c-2.5,3.1-5.5,4.7-9,4.7c-4.6,0-6.9-1.7-6.9-5c0-0.9,0.3-1.6,0.9-2.3c0.6-0.7,1.5-1,2.5-1c1.4,0,2.3,0.5,2.8,1.5
			c0.3,0.9,0.6,1.8,0.9,2.8c0.3,1,1,1.4,2,1.4C279.1,134.7,279.9,133.2,279.9,130.2z"/>
		<path d="M304.6,109.8l-1.9,6.1c-0.9,2.8-1.3,4.3-1.3,4.6c0,1.4,1.5,2.1,4.4,2.1h0.6v1.8c-3.1-0.2-5.5-0.2-7.1-0.2
			c-1.4,0-3.5,0.1-6.4,0.2v-1.8h0.4c2.5,0,4.2-1.3,5.1-3.8l9.4-27.1c0.6-1.7,1.4-4.2,2.2-7.3c2-0.7,3.8-1.5,5.4-2.5
			c0.2-0.1,0.4-0.1,0.5-0.1c0.2,0,0.3,0.1,0.4,0.2c0.1,0.4,0.3,0.8,0.5,1.5l10.9,30.9c0.5,1.4,1.2,3.4,2.2,6c0.7,1.6,2,2.4,3.9,2.4
			h0.4v1.8c-3.5-0.2-6.3-0.2-8.1-0.2s-4.8,0.1-8.8,0.2v-1.8h0.6c2.4,0,3.7-0.6,3.7-1.7c0-0.5-0.4-1.9-1.2-4.2l-2.3-6.8H304.6z
			 M316.8,106.5l-5.4-16.7h-0.1l-5.5,16.7H316.8z"/>
		<path d="M334.3,124.4v-1.8h0.8c2.9,0,4.4-1.1,4.4-3.4V88.4c0-2.2-1.5-3.4-4.4-3.4h-0.8v-1.8c0.4,0,1.8,0,4,0.1
			c2.2,0.1,4,0.1,5.5,0.1c1.4,0,3.1,0,5.2-0.1c2.1-0.1,3.5-0.1,4.3-0.1c7.2,0,12.9,1.9,17.1,5.6s6.3,8.7,6.3,14.9
			c0,5.9-2.2,11-6.5,15.1c-4.3,4.1-9.4,6-15.4,5.6c-2.8-0.2-6.4-0.2-10.7-0.2c-1.5,0-3.5,0-5.8,0.1
			C335.9,124.4,334.6,124.4,334.3,124.4z M347.1,85.7v32c0,2,0.6,3.4,1.7,4c0.8,0.4,2.3,0.6,4.4,0.6c4.8,0,8.6-1.8,11.4-5.3
			c2.6-3.3,3.8-7.3,3.8-12.2c0-13-5.8-19.5-17.3-19.5C350.6,85.4,349.2,85.5,347.1,85.7z"/>
		<path d="M386.1,130.2V88.1c0-1.4-0.5-2.3-1.5-2.7c-0.6-0.3-1.7-0.4-3.4-0.4h-0.8v-1.8c0.8,0,2.3,0,4.4,0.1
			c2.1,0.1,3.7,0.1,4.7,0.1c1.1,0,2.7,0,4.8-0.1c2.1-0.1,3.6-0.1,4.4-0.1V85h-0.9c-2.7,0-4.1,1-4.1,3.1v34.7c0,3.7-1.1,6.9-3.4,9.8
			c-2.5,3.1-5.5,4.7-9,4.7c-4.6,0-6.9-1.7-6.9-5c0-0.9,0.3-1.6,0.9-2.3c0.6-0.7,1.5-1,2.5-1c1.4,0,2.3,0.5,2.8,1.5
			c0.3,0.9,0.6,1.8,0.9,2.8c0.3,1,1,1.4,2,1.4C385.2,134.7,386.1,133.2,386.1,130.2z"/>
		<path d="M410.8,109.8l-1.9,6.1c-0.9,2.8-1.3,4.3-1.3,4.6c0,1.4,1.5,2.1,4.4,2.1h0.6v1.8c-3.1-0.2-5.5-0.2-7.1-0.2
			c-1.4,0-3.5,0.1-6.4,0.2v-1.8h0.4c2.5,0,4.2-1.3,5.1-3.8l9.4-27.1c0.6-1.7,1.4-4.2,2.2-7.3c2-0.7,3.8-1.5,5.4-2.5
			c0.2-0.1,0.4-0.1,0.5-0.1c0.2,0,0.3,0.1,0.4,0.2c0.1,0.4,0.3,0.8,0.5,1.5l10.9,30.9c0.5,1.4,1.2,3.4,2.2,6c0.7,1.6,2,2.4,3.9,2.4
			h0.4v1.8c-3.5-0.2-6.3-0.2-8.1-0.2s-4.8,0.1-8.8,0.2v-1.8h0.6c2.4,0,3.7-0.6,3.7-1.7c0-0.5-0.4-1.9-1.2-4.2l-2.3-6.8H410.8z
			 M422.9,106.5l-5.4-16.7h-0.1l-5.5,16.7H422.9z"/>
		<path d="M445.9,119.5v-30c0-1.9-0.5-3.2-1.4-3.8c-0.6-0.4-1.5-0.6-2.8-0.6h-1.1v-1.8c0.5,0,1.8,0,3.9,0.1c2.1,0.1,3.9,0.1,5.2,0.1
			c1.2,0,2.9,0,4.9-0.1c2-0.1,3.6-0.1,4.6-0.1c9.4,0,14,3.5,14,10.4c0,4.8-2.7,8.2-8.2,10.4l10.1,15.1c0.8,1.2,1.6,2.1,2.4,2.5
			c0.8,0.5,1.9,0.8,3.3,1v1.8c-0.6,0-1.6,0-2.9-0.1c-1.3-0.1-2.3-0.1-2.9-0.1c-0.6,0-1.5,0-2.7,0.1c-1.2,0.1-2.2,0.1-2.8,0.1
			c-3.8-5-7.9-11.3-12.3-19.1h-3.9v12.6c0,2,0.5,3.4,1.4,4.1c0.6,0.4,1.8,0.6,3.4,0.6h1.1v1.8c-1.1,0-2.8,0-5-0.1
			c-2.3-0.1-4-0.1-5.1-0.1c-0.9,0-2.4,0-4.2,0.1c-1.9,0.1-3.3,0.1-4.3,0.1v-1.8h1.1C444.5,122.6,445.9,121.6,445.9,119.5z
			 M453.4,85.6v17.6h2.9c3.1,0,5.3-0.7,6.8-2.1c1.5-1.4,2.2-3.8,2.2-7.1c0-2.6-0.8-4.7-2.3-6.3c-1.6-1.6-3.6-2.3-6.3-2.3
			C456.8,85.4,455.6,85.4,453.4,85.6z"/>
		<path d="M492.4,109.8l-1.9,6.1c-0.9,2.8-1.3,4.3-1.3,4.6c0,1.4,1.5,2.1,4.4,2.1h0.6v1.8c-3.1-0.2-5.5-0.2-7.1-0.2
			c-1.4,0-3.5,0.1-6.4,0.2v-1.8h0.4c2.5,0,4.2-1.3,5.1-3.8l9.4-27.1c0.6-1.7,1.4-4.2,2.2-7.3c2-0.7,3.8-1.5,5.4-2.5
			c0.2-0.1,0.4-0.1,0.5-0.1c0.2,0,0.3,0.1,0.4,0.2c0.1,0.4,0.3,0.8,0.5,1.5l10.9,30.9c0.5,1.4,1.2,3.4,2.2,6c0.7,1.6,2,2.4,3.9,2.4
			h0.4v1.8c-3.5-0.2-6.3-0.2-8.1-0.2s-4.8,0.1-8.8,0.2v-1.8h0.6c2.4,0,3.7-0.6,3.7-1.7c0-0.5-0.4-1.9-1.2-4.2l-2.3-6.8H492.4z
			 M504.6,106.5l-5.4-16.7H499l-5.5,16.7H504.6z"/>
		<path d="M533.8,83.2l26.3,29.6l0.1-0.1V90.5c0-3.7-1.7-5.5-5.1-5.5h-1.3v-1.8c0.9,0,2.3,0,4.2,0.1c1.8,0.1,3.2,0.1,4.1,0.1
			c0.8,0,2,0,3.7-0.1c1.6-0.1,2.8-0.1,3.6-0.1V85h-0.9c-1.6,0-2.8,0.4-3.5,1.1c-1.1,1.1-1.7,3.2-1.7,6.4v26.8c0,2.5,0.1,4.5,0.4,6
			h-2.2l-30.4-33.9v24.3c0,2.6,0.4,4.4,1.1,5.4c0.7,1,2.2,1.5,4.4,1.5h1v1.8c-0.8,0-2.1,0-3.8-0.1c-1.7-0.1-3-0.1-3.8-0.1
			s-2.2,0-4,0.1c-1.8,0.1-3.1,0.1-4,0.1v-1.8h0.8c3.5,0,5.3-2.5,5.3-7.5V90.3c0-1.6-0.5-2.9-1.6-3.8c-1.1-1-2.3-1.5-3.7-1.5h-0.8
			v-1.8c0.7,0,1.9,0,3.4,0.1c1.5,0.1,2.6,0.1,3.4,0.1c0.6,0,1.5,0,2.6-0.1C532.3,83.3,533.2,83.2,533.8,83.2z"/>
	</g>
</g>
</svg>
